<?xml version="1.0" encoding="utf-8"?>
<!-- Generator: Adobe Illustrator 23.0.1, SVG Export Plug-In . SVG Version: 6.00 Build 0)  -->
<svg version="1.1" id="Layer_1" xmlns="http://www.w3.org/2000/svg" xmlns:xlink="http://www.w3.org/1999/xlink" x="0px" y="0px"
	 viewBox="0 0 56 88.9" style="enable-background:new 0 0 56 88.9;" xml:space="preserve">
<style type="text/css">
	.st0{fill:#007BFF;}
	.st1{fill:#FFFFFF;}
	.st2{fill:#B3E3FC;}
</style>
<g>
	<path class="st0" d="M3.5,2.1h49c0.7,0,1.4,0.6,1.4,1.3v82c0,0.8-0.6,1.3-1.4,1.3h-49c-0.7,0-1.4-0.6-1.4-1.3v-82
		C2.1,2.7,2.8,2.1,3.5,2.1z"/>
	<circle class="st1" cx="51.8" cy="4.2" r="0.8"/>
	<circle class="st1" cx="4.2" cy="4.2" r="0.8"/>
	<g>
		<circle class="st1" cx="51.8" cy="84.7" r="0.8"/>
		<circle class="st1" cx="4.2" cy="84.7" r="0.8"/>
	</g>
	<title>back</title>
	<g>
		<g>
			<g>
				<path class="st1" d="M17.8,56.3c-2-1.1-2.5-2.9-1.3-5.3c0.9-1.7,2.2-1.4,2.6-1.2c0.8,0.4,1,1.9,1,1.9s0.5,0.2,1-0.8
					c0.5-1,0.3-2.2-1.2-3c-1.8-0.9-3.6,0.5-4.6,2.4c-0.8,1.6-2.7,5.8,1.4,8c3.7,1.9,7.6-4.9,9.9-3.6c2.6,1.3,1.8,4.5,1.3,5.5
					c-0.5,1-1.4,1-1.8,0.8c-2.1-1.1-1.6-3.4-1.6-3.4c-0.2-0.1-0.9-0.3-1.3,0.5c-1.1,2.1,0.3,3.8,2,4.7c1.5,0.8,2.9,0.2,3.7-1.4
					c1.5-3,1.8-7.1-1.4-8.8C24.5,51,20.1,57.5,17.8,56.3z"/>
				<path class="st1" d="M40.7,32.1c-0.1,0-0.1,0.1-0.1,0.2c0.1,0.5,0.5,1.7-0.4,3.5c-1.7,3.3-7.4,1.1-7.4,1.1s-0.6-3.5-1.1-4.3
					c-0.6-0.8-1.4,0.4-1.4,0.4s1.2,2.9,1.2,4.4c-0.9-0.6-2.5-2.6-3.7-3.3c-1.2-0.7-1.7,1-1.7,1.3c0.5,0.3,4.7,4.1,7.1,6
					c0.3,0.5,0.6,1.2,0.4,1.6c-0.1,0.2-0.5,0.1-1.1-0.2c-0.8-0.4-1.8-1.5-2.6-1.9c-0.5-0.3-0.7,0-0.8,0.2c0,0-0.1,0.3-0.2,0.3
					c-0.3,0.5-0.6,0.1-0.9,0.6c-0.8,1.5-0.1,4.2,2.3,5.6c0.1,0.7,0.1,1.6-0.1,1.9c-0.2,0.4-0.6,0.3-0.9,0.1
					c-0.5-0.3-3.2-2.8-3.2-2.8s0.3-1.2,0.4-1.8c0.1-0.4,0.1-0.5,0-0.7c-0.1-0.2-0.3-0.7-0.5-1.1c-0.2-0.4-0.6-0.3-0.8,0.1
					c-0.3,0.5-0.7,2.1-0.7,2.1s-2.6-2.2-2.7-2.3c-0.1,0-0.1,0-0.2,0.1c-0.1,0.3-0.2,0.8-0.3,1.1c-0.1,0.5,0.3,1.2,0.5,1.4
					c0.2,0.2,2,1.8,2,1.8s-0.5,3.2-0.5,3.7c0,0,0,0.1,0,0.1c0,0,1.4,0.3,1.7-0.3c0.2-0.5,0.4-2.1,0.4-2.1s2.4,2.1,3.3,2.6
					c0.6,0.3,1.4,0.4,2-0.8c0.6-1.1,0.5-2.3,0.4-3c0.9,0.1,1.4-0.5,1.7-1c0.5-1,0.1-2.3,0.1-2.4c0.4,0,1.2,0,1.5-0.7
					c0.2-0.4,0-1.1-0.3-1.6c0.1,0.1,0.2,0.1,0.3,0.1c1.2,0.5,1.4-1.6,1.3-1.8c-0.8-0.5-2.5-1.3-3.4-2.2c3.8,1.4,7.1,1,8.6-2
					c0.9-1.7,0.8-2.8,0.6-3.4C41.5,32.3,40.9,32.1,40.7,32.1z M32,45.9c-0.7,1.4-3.5-2.4-2.9-3.6C29.6,42.5,32.8,44.2,32,45.9z"/>
				<path class="st1" d="M39.2,34.8c0.7-1.3,0.3-2.8,0.2-3.1c-0.2-0.4-1.1-0.2-1.1,0c0.2,0.6,0.4,1.3-0.1,2.3
					c-0.6,1.1-1.7,0.2-1.7,0.2s1.4-2,0.3-3.7c-0.4-0.5-1-0.9-1.4-1c-0.4,0-1.2,0.3-1.7,1.4c-0.5,1.3-0.1,3.5,1.3,4.7
					C36.1,36.4,38.2,36.8,39.2,34.8z M34.7,30.7c0.1-0.2,0.4,0,0.8,0.2c0.4,0.3,1.3,1.6,0.6,2.8C35.4,33.3,34.3,31.5,34.7,30.7z"/>
			</g>
		</g>
	</g>
	<g>
		<path class="st2" d="M15.3,47.1l0.4-0.5l-0.1-0.1c-0.4-0.9-0.4-2,0-2.9L27.2,18c0.1-0.3,0.5-0.5,0.8-0.5h0c0.4,0,0.7,0.2,0.8,0.5
			l4.2,9.4l0.6-0.2l-4.2-9.4c-0.2-0.5-0.8-0.9-1.4-0.9c0,0,0,0,0,0c-0.6,0-1.1,0.3-1.4,0.9L15.1,43.4c-0.5,1.1-0.5,2.3,0,3.4
			L15.3,47.1z"/>
		<path class="st2" d="M40,41.3l-0.5,0.4l0.8,1.8c0.4,0.9,0.4,2,0,2.9L28.8,72.1c-0.1,0.3-0.5,0.5-0.8,0.5h0c-0.4,0-0.7-0.2-0.8-0.5
			l-2-4.4l-0.6,0.2l2,4.5c0.2,0.5,0.8,0.9,1.4,0.9c0,0,0,0,0,0c0.6,0,1.1-0.3,1.4-0.9l11.5-25.6c0.5-1.1,0.5-2.3,0-3.4L40,41.3z"/>
	</g>
</g>
</svg>
